<?xml version="1.0" standalone="no"?>
<!DOCTYPE svg PUBLIC "-//W3C//DTD SVG 20010904//EN"
 "http://www.w3.org/TR/2001/REC-SVG-20010904/DTD/svg10.dtd">
<svg version="1.0" xmlns="http://www.w3.org/2000/svg"
 width="251.000000pt" height="251.000000pt" viewBox="0 0 251.000000 251.000000"
 preserveAspectRatio="xMidYMid meet">
<metadata>
Created by potrace 1.11, written by Peter Selinger 2001-2013
</metadata>
<g transform="translate(0.000000,251.000000) scale(0.100000,-0.100000)"
fill="#000000" stroke="none">
<path d="M59 2508 c-1 -2 -2 -567 -3 -1256 l-1 -1252 56 0 57 0 1 632 c1 348
3 634 5 636 2 2 21 -7 43 -21 21 -13 257 -150 524 -305 376 -218 494 -282 520
-282 26 0 108 43 334 173 552 319 700 404 720 415 20 10 20 7 20 -619 l0 -629
55 0 55 0 0 679 0 679 -40 25 -41 24 -120 -68 c-65 -38 -126 -73 -134 -79 -8
-5 -28 -17 -45 -26 -16 -9 -204 -117 -417 -240 l-387 -224 -88 52 c-114 66
-241 139 -378 218 -135 77 -140 80 -363 210 -100 58 -178 108 -174 112 4 3
248 145 542 313 294 169 541 312 548 318 10 8 1 18 -40 43 -43 27 -56 31 -73
22 -11 -6 -163 -96 -337 -200 -175 -103 -332 -197 -350 -207 -55 -32 -239
-141 -307 -183 -35 -21 -65 -37 -67 -35 -2 2 -5 244 -6 538 l-3 534 -52 3
c-29 1 -54 1 -54 0z"/>
</g>
</svg>
